<svg width="128" height="100" viewBox="0 0 128 128" fill="none" xmlns="http://www.w3.org/2000/svg"><title>Aim Trainer</title><path fill-rule="evenodd" clip-rule="evenodd" d="M64 118C93.8234 118 118 93.8234 118 64C118 34.1766 93.8234 10 64 10C34.1766 10 10 34.1766 10 64C10 93.8234 34.1766 118 64 118ZM64 128C99.3462 128 128 99.3462 128 64C128 28.6538 99.3462 0 64 0C28.6538 0 0 28.6538 0 64C0 99.3462 28.6538 128 64 128Z" fill="#f0a202"></path><path fill-rule="evenodd" clip-rule="evenodd" d="M64 97C82.2254 97 97 82.2254 97 64C97 45.7746 82.2254 31 64 31C45.7746 31 31 45.7746 31 64C31 82.2254 45.7746 97 64 97ZM64 107C87.7482 107 107 87.7482 107 64C107 40.2518 87.7482 21 64 21C40.2518 21 21 40.2518 21 64C21 87.7482 40.2518 107 64 107Z" fill="#f0a202"></path><path fill-rule="evenodd" clip-rule="evenodd" d="M64 76C70.6274 76 76 70.6274 76 64C76 57.3726 70.6274 52 64 52C57.3726 52 52 57.3726 52 64C52 70.6274 57.3726 76 64 76ZM64 86C76.1503 86 86 76.1503 86 64C86 51.8497 76.1503 42 64 42C51.8497 42 42 51.8497 42 64C42 76.1503 51.8497 86 64 86Z" fill="#f0a202"></path></svg>