<svg width="125" height="100" viewBox="0 0 125 127" fill="none" xmlns="http://www.w3.org/2000/svg" ><title>Typing</title><path fill-rule="evenodd" clip-rule="evenodd" d="M18.3278 2.28093C19.2495 0.858591 20.8289 0 22.5238 0H101.929C103.598 0 105.158 0.833566 106.086 2.22191L123.314 28.0032C124.413 29.6478 125 31.5813 125 33.5593V122C125 124.761 122.761 127 120 127H5C2.23858 127 0 124.761 0 122V33.5209C0 31.591 0.558439 29.7023 1.60795 28.0827L18.3278 2.28093ZM17.5238 21.9102V75.2696L10 94.9366V33.5208L17.5238 21.9102ZM12.2662 117H112.652L98.5261 81.1934H25.9644L12.2662 117ZM27.5238 71.1934H96.9286V10H27.5238V71.1934ZM106.929 21.4811L115 33.5593V95.7018L106.929 75.2428V21.4811Z" fill="#f0a202"></path><path d="M77.3883 53.2029C77.7091 55.1944 76.1711 57 74.1539 57V57C72.5085 57 71.1184 55.7796 70.9054 54.148L70.7384 52.8685C70.4298 50.505 68.416 48.737 66.0325 48.737H58.6308C56.9534 48.737 55.3877 49.5781 54.4617 50.9768L51.3823 55.628C50.8151 56.4848 49.856 57 48.8285 57V57C46.3613 57 44.9067 54.2318 46.3062 52.1999L64.2397 26.1637C65.1728 24.8091 66.7381 24 68.383 24V24C70.8375 24 72.9705 25.7815 73.3609 28.2047L77.3883 53.2029ZM62.3364 39.1553C60.6899 41.6312 62.4649 44.9433 65.4383 44.9433V44.9433C67.6795 44.9433 69.4133 42.9785 69.1345 40.7547V40.7547C68.705 37.3285 64.2485 36.28 62.3364 39.1553V39.1553Z" fill="#f0a202"></path></svg>